# xmcd CD database file
#
# Track frame offsets:
#	150
#	15247
#	29166
#	36581
#	46238
#	61800
#	70007
#	81414
#	92796
#	102485
#	114162
#	122912
#	132054
#	143146
#	159753
#
# Disc length: 2233 seconds
#
# Revision: 1
# Processed by: cddbd v1.4PL0 Copyright (c) Steve Scherf et al.
# Submitted via: CDex 1.50beta8
#
DISCID=c408b70f
DTITLE=Андрей Макаревич - Я рисую тебя
DYEAR=1994
DGENRE=Vocal
TTITLE0=Воды нашей реки
TTITLE1=Пора в обратный путь
TTITLE2=Наверное, без нас
TTITLE3=Посвящение театру
TTITLE4=Когда её нет
TTITLE5=Музыканты уходят из мира
TTITLE6=Не плачь, мой друг, не плачь
TTITLE7=Лица
TTITLE8=Я рисую тебя
TTITLE9=Там, где светел день
TTITLE10=Братский вальсок
TTITLE11=Поздравительная
TTITLE12=Возникает из недопетости...
TTITLE13=Марианна
TTITLE14=Хватит о дальнем береге...
EXTD=YEAR: 1994
EXTT0=
EXTT1=
EXTT2=
EXTT3=
EXTT4=
EXTT5=
EXTT6=
EXTT7=
EXTT8=
EXTT9=
EXTT10=
EXTT11=
EXTT12=
EXTT13=
EXTT14=
PLAYORDER=
